<?xml version='1.0' encoding='iso-8859-1'?>
<svg version="1.1" xmlns="http://www.w3.org/2000/svg" viewBox="0 0 462.929 462.929" xmlns:xlink="http://www.w3.org/1999/xlink" enable-background="new 0 0 462.929 462.929">
  <g>
    <path d="m418.295,4.453c-2.994-2.942-6.962-4.525-11.113-4.451-45.495,0.791-88.894,7.808-134.841,15.236-48.414,7.828-98.476,15.922-153.049,16.64-8.452,0.111-15.328,7.038-15.328,15.441v0.61h-17v-8.5c0-12.958-10.542-23.5-23.5-23.5s-23.5,10.542-23.5,23.5v400c0,12.958 10.542,23.5 23.5,23.5s23.5-10.542 23.5-23.5v-168.445h17v0.389c0,4.186 1.649,8.118 4.643,11.071 2.937,2.897 6.797,4.485 10.892,4.485 0.071,0 0.144-0.001 0.215-0.002 55.59-0.751 106.137-8.923 155.02-16.827 45.494-7.355 88.465-14.303 132.982-15.051 8.408-0.142 15.249-7.063 15.249-15.428v-224.051c-5.68434e-14-4.209-1.659-8.157-4.67-11.117zm-346.33,434.976c2.84217e-14,4.687-3.813,8.5-8.5,8.5s-8.5-3.813-8.5-8.5v-400c0-4.687 3.813-8.5 8.5-8.5s8.5,3.813 8.5,8.5v400zm15-183.445v-193.055h17v193.055h-17zm321-16.362c-5.68434e-14,0.276-0.252,0.426-0.5,0.43-45.595,0.766-89.083,7.798-135.125,15.241-48.348,7.817-98.341,15.9-152.829,16.637-0.16-0.011-0.258-0.053-0.369-0.163-0.081-0.08-0.177-0.213-0.177-0.394v-224.054c0-0.244 0.23-0.439 0.525-0.443 55.679-0.731 106.295-8.915 155.246-16.83 45.402-7.34 88.287-14.273 132.707-15.046 0.003,0 0.008,0 0.013,0 0.055,0 0.182,0.009 0.326,0.15 0.084,0.083 0.185,0.223 0.185,0.42v224.052h-0.002z"/>
  </g>
</svg>
